General
Complete name                    : Fly With Me (Mumzy Stranger) - (Full HD Video).avi
Format                           : AVI
Format/Info                      : Audio Video Interleave
File size                        : 48.8 MiB
Duration                         : 3mn 33s
Overall bit rate                 : 1 916 Kbps
Writing application              : Lavf51.12.1

Video
ID                               : 0
Format                           : MPEG-4 Visual
Codec ID                         : MP42
Codec ID/Info                    : Microsoft MPEG-4 v2 (pre-standard)
Codec ID/Hint                    : Microsoft
Duration                         : 3mn 33s
Bit rate                         : 1 776 Kbps
Width                            : 720 pixels
Height                           : 320 pixels
Display aspect ratio             : 2.25:1
Frame rate                       : 25.000 fps
Bits/(Pixel*Frame)               : 0.308
Stream size                      : 45.2 MiB (93%)

Audio
ID                               : 1
Format                           : MPEG Audio
Format version                   : Version 1
Format profile                   : Layer 3
Mode                             : Joint stereo
Mode extension                   : MS Stereo
Codec ID                         : 55
Codec ID/Hint                    : MP3
Duration                         : 3mn 33s
Bit rate mode                    : Constant
Bit rate                         : 128 Kbps
Channel(s)                       : 2 channels
Sampling rate                    : 44.1 KHz
Stream size                      : 3.26 MiB (7%)
Alignment                        : Aligned on interleaves
Interleave, duration             : 26 ms (0.65 video frame)

 
http://www.postimg.com/26000/25723.jpg

My Blogs-

*playboyonly. blogspot. com*
*chitra-dmj. blogspot. com*

Riped by DjMaza
